<svg width="133" height="33" viewBox="0 0 133 33" fill="none" xmlns="http://www.w3.org/2000/svg">
<path d="M16.024 0C14.7745 0 13.5583 0.143008 12.3916 0.414127C6.45859 1.78879 1.78879 6.45859 0.414127 12.391C0.143008 13.5583 0 14.7745 0 16.024C0 24.8738 7.17422 32.048 16.024 32.048C17.2736 32.048 18.4897 31.905 19.657 31.6339C25.5895 30.2593 30.2593 25.5901 31.6345 19.6582C31.9056 18.4909 32.0486 17.2741 32.0486 16.024C32.0486 7.17422 24.8738 0 16.024 0ZM16.024 26.059C14.8412 26.059 13.7067 25.8546 12.6532 25.4786C9.82285 24.4692 7.57941 22.2258 6.57002 19.3954C6.19403 18.3419 5.98964 17.2068 5.98964 16.024C5.98964 10.4819 10.4819 5.98905 16.024 5.98905C17.2068 5.98905 18.3413 6.19343 19.3948 6.56942C22.2252 7.57882 24.4692 9.82225 25.4786 12.6526C25.8546 13.7061 26.059 14.8412 26.059 16.024C26.059 21.5662 21.5662 26.059 16.024 26.059Z" fill="url(#paint0_linear_41_1128)"/>
<path d="M16.0239 9.55664C12.4523 9.55664 9.5564 12.4525 9.5564 16.0242C9.5564 19.5958 12.4523 22.4917 16.0239 22.4917C19.5955 22.4917 22.4915 19.5958 22.4915 16.0242C22.4915 12.4525 19.5961 9.55664 16.0239 9.55664ZM16.0239 19.9348C13.8645 19.9348 12.1133 18.1842 12.1133 16.0242C12.1133 13.8642 13.8645 12.1135 16.0239 12.1135C18.1833 12.1135 19.9346 13.8642 19.9346 16.0242C19.9346 18.1842 18.1839 19.9348 16.0239 19.9348Z" fill="#F5F3FF"/>
<path d="M19.3949 6.56936C18.3414 6.19336 17.2069 5.98898 16.0241 5.98898C10.4819 5.98898 5.9897 10.4818 5.9897 16.024C5.9897 17.2068 6.19408 18.3419 6.57007 19.3954C5.28956 18.9115 4.08889 18.1542 3.05804 17.1233C1.70543 15.7707 0.82414 14.1255 0.414185 12.391C1.78885 6.45853 6.45865 1.78872 12.3917 0.414062C14.1257 0.824018 15.7708 1.7053 17.1235 3.05792C18.1537 4.08817 18.9111 5.28884 19.3949 6.56936Z" fill="url(#paint1_linear_41_1128)"/>
<path d="M31.6346 19.6579C30.2594 25.5898 25.5896 30.259 19.6571 31.6336C17.9232 31.2237 16.278 30.3424 14.9254 28.9898C13.8945 27.9589 13.1372 26.7583 12.6533 25.4784C13.7068 25.8543 14.8413 26.0587 16.0241 26.0587C21.5663 26.0587 26.0591 21.5659 26.0591 16.0238C26.0591 14.841 25.8547 13.7058 25.4787 12.6523C26.7587 13.1362 27.9593 13.8935 28.9902 14.9244C30.3428 16.277 31.2247 17.9234 31.6346 19.6579Z" fill="url(#paint2_linear_41_1128)"/>
<path d="M8.09792 27.3042C9.95002 27.3042 11.4515 25.8028 11.4515 23.9507C11.4515 22.0986 9.95002 20.5972 8.09792 20.5972C6.24581 20.5972 4.74438 22.0986 4.74438 23.9507C4.74438 25.8028 6.24581 27.3042 8.09792 27.3042Z" fill="url(#paint3_linear_41_1128)"/>
<path d="M23.9801 11.4219C25.8322 11.4219 27.3337 9.92048 27.3337 8.06838C27.3337 6.21627 25.8322 4.71484 23.9801 4.71484C22.128 4.71484 20.6266 6.21627 20.6266 8.06838C20.6266 9.92048 22.128 11.4219 23.9801 11.4219Z" fill="url(#paint4_linear_41_1128)"/>
<path d="M48.6173 12.8542H46.6738C46.6184 12.5354 46.5162 12.2531 46.3672 12.0071C46.2183 11.7577 46.0329 11.5464 45.8112 11.3732C45.5895 11.1999 45.3366 11.07 45.0525 10.9834C44.7719 10.8933 44.4688 10.8483 44.1431 10.8483C43.5646 10.8483 43.0519 10.9938 42.605 11.2848C42.1581 11.5724 41.8082 11.995 41.5553 12.5528C41.3024 13.107 41.1759 13.7843 41.1759 14.5846C41.1759 15.3987 41.3024 16.0846 41.5553 16.6424C41.8116 17.1967 42.1615 17.6159 42.605 17.8999C43.0519 18.1805 43.5629 18.3208 44.1379 18.3208C44.4567 18.3208 44.7546 18.2793 45.0317 18.1961C45.3123 18.1095 45.5635 17.9831 45.7852 17.8168C46.0104 17.6505 46.1992 17.4461 46.3516 17.2036C46.5075 16.9611 46.6149 16.6839 46.6738 16.3722L48.6173 16.3826C48.5445 16.8883 48.3869 17.363 48.1444 17.8064C47.9054 18.2498 47.5919 18.6413 47.2039 18.9808C46.8158 19.3168 46.362 19.5801 45.8424 19.7707C45.3227 19.9577 44.7459 20.0513 44.112 20.0513C43.1766 20.0513 42.3417 19.8347 41.6073 19.4017C40.8728 18.9687 40.2943 18.3434 39.8716 17.5258C39.449 16.7082 39.2377 15.7278 39.2377 14.5846C39.2377 13.4379 39.4507 12.4575 39.8768 11.6434C40.3029 10.8258 40.8832 10.2005 41.6176 9.76745C42.3521 9.33441 43.1835 9.11789 44.112 9.11789C44.7043 9.11789 45.2552 9.20103 45.7644 9.36732C46.2737 9.53361 46.7275 9.77784 47.1259 10.1C47.5243 10.4187 47.8517 10.8102 48.108 11.2744C48.3679 11.7352 48.5376 12.2618 48.6173 12.8542ZM53.6203 20.0617C52.8408 20.0617 52.1653 19.8902 51.5937 19.5472C51.0221 19.2042 50.5787 18.7244 50.2634 18.1078C49.9516 17.4911 49.7957 16.7706 49.7957 15.9461C49.7957 15.1215 49.9516 14.3992 50.2634 13.7791C50.5787 13.159 51.0221 12.6775 51.5937 12.3345C52.1653 11.9915 52.8408 11.8201 53.6203 11.8201C54.3998 11.8201 55.0753 11.9915 55.6469 12.3345C56.2186 12.6775 56.6603 13.159 56.972 13.7791C57.2873 14.3992 57.4449 15.1215 57.4449 15.9461C57.4449 16.7706 57.2873 17.4911 56.972 18.1078C56.6603 18.7244 56.2186 19.2042 55.6469 19.5472C55.0753 19.8902 54.3998 20.0617 53.6203 20.0617ZM53.6307 18.5547C54.0534 18.5547 54.4067 18.4386 54.6908 18.2065C54.9749 17.9709 55.1862 17.6557 55.3248 17.2608C55.4668 16.8658 55.5378 16.4259 55.5378 15.9409C55.5378 15.4524 55.4668 15.0107 55.3248 14.6158C55.1862 14.2174 54.9749 13.9004 54.6908 13.6648C54.4067 13.4292 54.0534 13.3114 53.6307 13.3114C53.1977 13.3114 52.8374 13.4292 52.5498 13.6648C52.2658 13.9004 52.0527 14.2174 51.9107 14.6158C51.7721 15.0107 51.7028 15.4524 51.7028 15.9409C51.7028 16.4259 51.7721 16.8658 51.9107 17.2608C52.0527 17.6557 52.2658 17.9709 52.5498 18.2065C52.8374 18.4386 53.1977 18.5547 53.6307 18.5547ZM60.7617 15.2289V19.9058H58.8806V11.924H60.6786V13.2803H60.7721C60.9557 12.8334 61.2484 12.4783 61.6503 12.215C62.0556 11.9517 62.5562 11.8201 63.1521 11.8201C63.7029 11.8201 64.1827 11.9378 64.5915 12.1734C65.0037 12.409 65.3225 12.7502 65.5476 13.1971C65.7763 13.644 65.8889 14.1862 65.8854 14.8236V19.9058H64.0043V15.1146C64.0043 14.5811 63.8657 14.1637 63.5886 13.8623C63.3149 13.5609 62.9356 13.4102 62.4505 13.4102C62.1214 13.4102 61.8287 13.4829 61.5723 13.6284C61.3194 13.7705 61.1203 13.9766 60.9747 14.2468C60.8327 14.517 60.7617 14.8444 60.7617 15.2289ZM71.1703 20.0617C70.3701 20.0617 69.679 19.8954 69.097 19.5628C68.5184 19.2268 68.0733 18.7521 67.7615 18.139C67.4497 17.5223 67.2938 16.7965 67.2938 15.9616C67.2938 15.1406 67.4497 14.42 67.7615 13.7999C68.0767 13.1763 68.5167 12.6913 69.0814 12.3449C69.6461 11.995 70.3095 11.8201 71.0716 11.8201C71.5635 11.8201 72.0278 11.8997 72.4643 12.0591C72.9042 12.215 73.2922 12.4575 73.6283 12.7866C73.9678 13.1157 74.2345 13.5349 74.4285 14.0441C74.6225 14.5499 74.7195 15.1527 74.7195 15.8525V16.4293H68.1772V15.1614H72.9164C72.9129 14.8011 72.835 14.4806 72.6825 14.2C72.5301 13.916 72.317 13.6925 72.0434 13.5297C71.7731 13.3669 71.4579 13.2855 71.0976 13.2855C70.7131 13.2855 70.3753 13.379 70.0843 13.5661C69.7933 13.7497 69.5664 13.9922 69.4035 14.2936C69.2442 14.5915 69.1628 14.9189 69.1593 15.2757V16.3826C69.1593 16.8468 69.2442 17.2452 69.4139 17.5777C69.5837 17.9069 69.821 18.1597 70.1259 18.3364C70.4307 18.5096 70.7875 18.5963 71.1963 18.5963C71.47 18.5963 71.7177 18.5581 71.9394 18.4819C72.1611 18.4022 72.3534 18.2862 72.5162 18.1338C72.6791 17.9813 72.802 17.7925 72.8852 17.5673L74.6416 17.7648C74.5307 18.229 74.3194 18.6344 74.0076 18.9808C73.6993 19.3238 73.3044 19.5905 72.8228 19.781C72.3413 19.9681 71.7905 20.0617 71.1703 20.0617ZM79.6316 20.0617C78.8348 20.0617 78.1506 19.8867 77.579 19.5368C77.0109 19.1869 76.5726 18.7036 76.2643 18.087C75.9595 17.4669 75.807 16.7532 75.807 15.9461C75.807 15.1354 75.9629 14.42 76.2747 13.7999C76.5865 13.1763 77.0265 12.6913 77.5946 12.3449C78.1662 11.995 78.8418 11.8201 79.6212 11.8201C80.2691 11.8201 80.8424 11.9396 81.3413 12.1786C81.8436 12.4142 82.2437 12.7485 82.5417 13.1815C82.8396 13.6111 83.0093 14.1134 83.0509 14.6885H81.2529C81.1802 14.304 81.007 13.9835 80.7333 13.7272C80.4631 13.4673 80.101 13.3374 79.6472 13.3374C79.2627 13.3374 78.9249 13.4414 78.6339 13.6492C78.3429 13.8536 78.116 14.1481 77.9532 14.5326C77.7938 14.9171 77.7141 15.3779 77.7141 15.9149C77.7141 16.4588 77.7938 16.9265 77.9532 17.3179C78.1125 17.7059 78.336 18.0056 78.6235 18.2169C78.9145 18.4248 79.2557 18.5287 79.6472 18.5287C79.9244 18.5287 80.1721 18.4767 80.3903 18.3728C80.612 18.2654 80.7974 18.1112 80.9463 17.9103C81.0953 17.7094 81.1975 17.4652 81.2529 17.1776H83.0509C83.0059 17.7423 82.8396 18.2429 82.552 18.6794C82.2645 19.1124 81.873 19.4519 81.3776 19.6979C80.8822 19.9404 80.3002 20.0617 79.6316 20.0617ZM88.4203 11.924V13.379H83.8318V11.924H88.4203ZM84.9646 10.0117H86.8458V17.505C86.8458 17.7579 86.8839 17.9519 86.9601 18.087C87.0398 18.2186 87.1437 18.3087 87.2719 18.3572C87.4 18.4057 87.5421 18.43 87.698 18.43C87.8158 18.43 87.9232 18.4213 88.0202 18.404C88.1206 18.3867 88.1968 18.3711 88.2488 18.3572L88.5658 19.8278C88.4653 19.8625 88.3216 19.9006 88.1345 19.9421C87.9509 19.9837 87.7257 20.008 87.4589 20.0149C86.9878 20.0287 86.5634 19.9577 86.1858 19.8018C85.8082 19.6425 85.5085 19.3965 85.2868 19.0639C85.0686 18.7314 84.9612 18.3156 84.9646 17.8168V10.0117ZM92.1294 20.0669C91.6236 20.0669 91.168 19.9768 90.7627 19.7966C90.3609 19.613 90.0421 19.3428 89.8066 18.986C89.5745 18.6292 89.4584 18.1892 89.4584 17.6661C89.4584 17.2157 89.5415 16.8433 89.7078 16.5488C89.8741 16.2544 90.101 16.0188 90.3886 15.8421C90.6761 15.6654 91 15.5321 91.3603 15.442C91.7241 15.3485 92.0999 15.2809 92.4879 15.2393C92.9556 15.1908 93.335 15.1475 93.626 15.1094C93.917 15.0678 94.1283 15.0055 94.2599 14.9223C94.3951 14.8357 94.4626 14.7024 94.4626 14.5222V14.491C94.4626 14.0996 94.3465 13.7964 94.1144 13.5817C93.8823 13.3669 93.548 13.2595 93.1115 13.2595C92.6508 13.2595 92.2853 13.3599 92.0151 13.5609C91.7483 13.7618 91.5682 13.9991 91.4746 14.2728L89.7182 14.0234C89.8568 13.5384 90.0854 13.133 90.4042 12.8074C90.7229 12.4783 91.1126 12.2323 91.5734 12.0695C92.0341 11.9032 92.5434 11.8201 93.1011 11.8201C93.4857 11.8201 93.8685 11.8651 94.2495 11.9552C94.6306 12.0452 94.9788 12.1942 95.294 12.4021C95.6093 12.6065 95.8622 12.8853 96.0527 13.2387C96.2467 13.592 96.3437 14.0337 96.3437 14.5638V19.9058H94.5354V18.8093H94.473C94.3587 19.031 94.1976 19.2389 93.9897 19.4329C93.7853 19.6234 93.5272 19.7776 93.2155 19.8954C92.9071 20.0097 92.5451 20.0669 92.1294 20.0669ZM92.6179 18.6846C92.9955 18.6846 93.3228 18.6101 93.6 18.4611C93.8771 18.3087 94.0902 18.1078 94.2392 17.8584C94.3916 17.6089 94.4678 17.337 94.4678 17.0425V16.1019C94.4089 16.1504 94.3084 16.1955 94.1664 16.2371C94.0278 16.2786 93.8719 16.315 93.6987 16.3462C93.5255 16.3774 93.354 16.4051 93.1843 16.4293C93.0145 16.4536 92.8673 16.4744 92.7426 16.4917C92.462 16.5298 92.2108 16.5921 91.9891 16.6788C91.7674 16.7654 91.5924 16.8866 91.4642 17.0425C91.3361 17.1949 91.272 17.3924 91.272 17.6349C91.272 17.9813 91.3984 18.2429 91.6513 18.4196C91.9042 18.5963 92.2264 18.6846 92.6179 18.6846ZM104.866 9.26339H106.794V16.2163C106.794 16.9784 106.614 17.6488 106.254 18.2273C105.897 18.8058 105.394 19.2579 104.747 19.5836C104.099 19.9058 103.342 20.0669 102.476 20.0669C101.606 20.0669 100.847 19.9058 100.2 19.5836C99.5518 19.2579 99.0495 18.8058 98.6927 18.2273C98.3358 17.6488 98.1574 16.9784 98.1574 16.2163V9.26339H100.085V16.0552C100.085 16.4986 100.182 16.8935 100.376 17.24C100.574 17.5864 100.851 17.8584 101.208 18.0558C101.565 18.2498 101.987 18.3468 102.476 18.3468C102.964 18.3468 103.387 18.2498 103.744 18.0558C104.104 17.8584 104.381 17.5864 104.575 17.24C104.769 16.8935 104.866 16.4986 104.866 16.0552V9.26339ZM108.728 19.9058V9.26339H115.546V10.8795H110.656V13.7687H115.079V15.3848H110.656V19.9058H108.728ZM126.251 12.8542H124.308C124.252 12.5354 124.15 12.2531 124.001 12.0071C123.852 11.7577 123.667 11.5464 123.445 11.3732C123.223 11.1999 122.97 11.07 122.686 10.9834C122.406 10.8933 122.103 10.8483 121.777 10.8483C121.198 10.8483 120.686 10.9938 120.239 11.2848C119.792 11.5724 119.442 11.995 119.189 12.5528C118.936 13.107 118.81 13.7843 118.81 14.5846C118.81 15.3987 118.936 16.0846 119.189 16.6424C119.445 17.1967 119.795 17.6159 120.239 17.8999C120.686 18.1805 121.197 18.3208 121.772 18.3208C122.09 18.3208 122.388 18.2793 122.666 18.1961C122.946 18.1095 123.197 17.9831 123.419 17.8168C123.644 17.6505 123.833 17.4461 123.985 17.2036C124.141 16.9611 124.249 16.6839 124.308 16.3722L126.251 16.3826C126.178 16.8883 126.021 17.363 125.778 17.8064C125.539 18.2498 125.226 18.6413 124.838 18.9808C124.45 19.3168 123.996 19.5801 123.476 19.7707C122.957 19.9577 122.38 20.0513 121.746 20.0513C120.81 20.0513 119.975 19.8347 119.241 19.4017C118.507 18.9687 117.928 18.3434 117.505 17.5258C117.083 16.7082 116.871 15.7278 116.871 14.5846C116.871 13.4379 117.085 12.4575 117.511 11.6434C117.937 10.8258 118.517 10.2005 119.251 9.76745C119.986 9.33441 120.817 9.11789 121.746 9.11789C122.338 9.11789 122.889 9.20103 123.398 9.36732C123.907 9.53361 124.361 9.77784 124.76 10.1C125.158 10.4187 125.485 10.8102 125.742 11.2744C126.002 11.7352 126.171 12.2618 126.251 12.8542Z" fill="#F5F3FF"/>
<defs>
<linearGradient id="paint0_linear_41_1128" x1="27.2013" y1="5.4623" x2="5.19476" y2="26.2574" gradientUnits="userSpaceOnUse">
<stop stop-color="#F38856"/>
<stop offset="0.23" stop-color="#F0625C"/>
<stop offset="1" stop-color="#5C3DAB"/>
</linearGradient>
<linearGradient id="paint1_linear_41_1128" x1="15.0099" y1="2.71649" x2="2.49257" y2="15.1665" gradientUnits="userSpaceOnUse">
<stop stop-color="#F67986"/>
<stop offset="1" stop-color="#8951BA"/>
</linearGradient>
<linearGradient id="paint2_linear_41_1128" x1="29.3262" y1="17.1094" x2="16.8089" y2="29.56" gradientUnits="userSpaceOnUse">
<stop stop-color="#F67986"/>
<stop offset="1" stop-color="#8951BA"/>
</linearGradient>
<linearGradient id="paint3_linear_41_1128" x1="10.5463" y1="21.6596" x2="5.64891" y2="26.2418" gradientUnits="userSpaceOnUse">
<stop stop-color="#A267B9"/>
<stop offset="1" stop-color="#704BB4"/>
</linearGradient>
<linearGradient id="paint4_linear_41_1128" x1="26.0186" y1="6.16041" x2="22.6752" y2="9.28931" gradientUnits="userSpaceOnUse">
<stop stop-color="#F7A8A5"/>
<stop offset="0.97" stop-color="#D074C4"/>
<stop offset="1" stop-color="#CF76A9"/>
</linearGradient>
</defs>
</svg>
