<svg width="204" height="50" viewBox="0 0 204 50" fill="none" xmlns="http://www.w3.org/2000/svg">
<path d="M24.5 0.0478516C22.5895 0.0478516 20.7301 0.266504 18.9462 0.681032C9.87489 2.78283 2.73498 9.92274 0.633181 18.9932C0.218652 20.7779 0 22.6374 0 24.5479C0 38.0788 10.9691 49.0479 24.5 49.0479C26.4105 49.0479 28.2699 48.8292 30.0547 48.4147C39.1251 46.3129 46.265 39.1739 48.3677 30.1044C48.7823 28.3196 49.0009 26.4592 49.0009 24.5479C49.0009 11.0169 38.0309 0.0478516 24.5 0.0478516ZM24.5 39.8909C22.6916 39.8909 20.9569 39.5784 19.3462 39.0035C15.0187 37.4602 11.5886 34.0301 10.0453 29.7026C9.47038 28.0918 9.15789 26.3563 9.15789 24.5479C9.15789 16.0742 16.0263 9.20483 24.5 9.20483C26.3084 9.20483 28.0431 9.51732 29.6538 10.0922C33.9813 11.6355 37.4123 15.0656 38.9557 19.3931C39.5305 21.0039 39.843 22.7394 39.843 24.5479C39.843 33.0215 32.9737 39.8909 24.5 39.8909Z" fill="url(#paint0_linear_41_1127)"/>
<path d="M24.5 14.6592C19.0392 14.6592 14.6115 19.0869 14.6115 24.5477C14.6115 30.0086 19.0392 34.4363 24.5 34.4363C29.9608 34.4363 34.3886 30.0086 34.3886 24.5477C34.3886 19.0869 29.9618 14.6592 24.5 14.6592ZM24.5 30.527C21.1984 30.527 18.5208 27.8503 18.5208 24.5477C18.5208 21.2452 21.1984 18.5685 24.5 18.5685C27.8017 18.5685 30.4792 21.2452 30.4792 24.5477C30.4792 27.8503 27.8026 30.527 24.5 30.527Z" fill="#F5F3FF"/>
<path d="M29.6538 10.0923C28.0431 9.51744 26.3084 9.20495 24.5 9.20495C16.0263 9.20495 9.15789 16.0743 9.15789 24.548C9.15789 26.3564 9.47038 28.092 10.0453 29.7027C8.0874 28.9629 6.25163 27.805 4.67551 26.2289C2.60743 24.1608 1.25998 21.6454 0.633179 18.9933C2.73497 9.92286 9.87489 2.78295 18.9462 0.681152C21.5974 1.30796 24.1128 2.6554 26.1809 4.72349C27.7561 6.2987 28.914 8.13446 29.6538 10.0923Z" fill="url(#paint1_linear_41_1127)"/>
<path d="M48.3677 30.1043C46.265 39.1738 39.1251 46.3128 30.0546 48.4146C27.4035 47.7878 24.8881 46.4404 22.82 44.3723C21.2439 42.7962 20.0859 40.9604 19.3461 39.0035C20.9569 39.5783 22.6915 39.8908 24.4999 39.8908C32.9736 39.8908 39.843 33.0215 39.843 24.5478C39.843 22.7394 39.5305 21.0038 38.9556 19.3931C40.9125 20.1328 42.7483 21.2908 44.3244 22.8669C46.3925 24.935 47.7409 27.4522 48.3677 30.1043Z" fill="url(#paint2_linear_41_1127)"/>
<path d="M12.3812 41.7948C15.213 41.7948 17.5086 39.4992 17.5086 36.6674C17.5086 33.8357 15.213 31.54 12.3812 31.54C9.5494 31.54 7.25378 33.8357 7.25378 36.6674C7.25378 39.4992 9.5494 41.7948 12.3812 41.7948Z" fill="url(#paint3_linear_41_1127)"/>
<path d="M36.6644 17.5116C39.4962 17.5116 41.7918 15.216 41.7918 12.3842C41.7918 9.55245 39.4962 7.25684 36.6644 7.25684C33.8326 7.25684 31.537 9.55245 31.537 12.3842C31.537 15.216 33.8326 17.5116 36.6644 17.5116Z" fill="url(#paint4_linear_41_1127)"/>
<path d="M74.3338 20.2379H71.3623C71.2775 19.7506 71.1213 19.3189 70.8935 18.9429C70.6657 18.5615 70.3824 18.2384 70.0434 17.9736C69.7044 17.7087 69.3177 17.5101 68.8834 17.3777C68.4543 17.24 67.9909 17.1711 67.493 17.1711C66.6084 17.1711 65.8245 17.3936 65.1412 17.8385C64.4579 18.2781 63.9229 18.9243 63.5363 19.7771C63.1496 20.6246 62.9563 21.6601 62.9563 22.8837C62.9563 24.1284 63.1496 25.1772 63.5363 26.03C63.9282 26.8775 64.4632 27.5184 65.1412 27.9527C65.8245 28.3817 66.6058 28.5963 67.485 28.5963C67.9723 28.5963 68.4279 28.5327 68.8516 28.4056C69.2806 28.2732 69.6647 28.0798 70.0036 27.8256C70.3479 27.5713 70.6366 27.2588 70.8697 26.888C71.108 26.5173 71.2722 26.0935 71.3623 25.6168L74.3338 25.6327C74.2225 26.406 73.9815 27.1317 73.6108 27.8097C73.2453 28.4877 72.7659 29.0862 72.1727 29.6053C71.5794 30.1191 70.8856 30.5216 70.091 30.813C69.2965 31.099 68.4146 31.242 67.4453 31.242C66.0152 31.242 64.7387 30.9109 63.6157 30.2489C62.4928 29.5868 61.6083 28.6307 60.962 27.3806C60.3158 26.1306 59.9927 24.6316 59.9927 22.8837C59.9927 21.1304 60.3185 19.6315 60.97 18.3867C61.6215 17.1367 62.5087 16.1806 63.6316 15.5185C64.7545 14.8564 66.0258 14.5254 67.4453 14.5254C68.3511 14.5254 69.1932 14.6525 69.9719 14.9067C70.7505 15.161 71.4444 15.5344 72.0535 16.027C72.6626 16.5143 73.1632 17.1128 73.5551 17.8226C73.9524 18.5271 74.2119 19.3322 74.3338 20.2379ZM81.9832 31.2579C80.7914 31.2579 79.7585 30.9957 78.8845 30.4713C78.0106 29.9469 77.3326 29.2133 76.8506 28.2705C76.3739 27.3277 76.1355 26.2259 76.1355 24.9653C76.1355 23.7047 76.3739 22.6003 76.8506 21.6522C77.3326 20.7041 78.0106 19.9678 78.8845 19.4434C79.7585 18.919 80.7914 18.6569 81.9832 18.6569C83.1749 18.6569 84.2078 18.919 85.0818 19.4434C85.9557 19.9678 86.6311 20.7041 87.1078 21.6522C87.5898 22.6003 87.8308 23.7047 87.8308 24.9653C87.8308 26.2259 87.5898 27.3277 87.1078 28.2705C86.6311 29.2133 85.9557 29.9469 85.0818 30.4713C84.2078 30.9957 83.1749 31.2579 81.9832 31.2579ZM81.9991 28.9538C82.6453 28.9538 83.1855 28.7763 83.6199 28.4215C84.0542 28.0613 84.3773 27.5793 84.5892 26.9754C84.8063 26.3716 84.9149 25.6989 84.9149 24.9574C84.9149 24.2105 84.8063 23.5352 84.5892 22.9314C84.3773 22.3222 84.0542 21.8376 83.6199 21.4774C83.1855 21.1172 82.6453 20.9371 81.9991 20.9371C81.337 20.9371 80.7861 21.1172 80.3465 21.4774C79.9121 21.8376 79.5864 22.3222 79.3692 22.9314C79.1573 23.5352 79.0514 24.2105 79.0514 24.9574C79.0514 25.6989 79.1573 26.3716 79.3692 26.9754C79.5864 27.5793 79.9121 28.0613 80.3465 28.4215C80.7861 28.7763 81.337 28.9538 81.9991 28.9538ZM92.902 23.8689V31.0195H90.0259V18.8158H92.7749V20.8894H92.9179C93.1986 20.2062 93.6462 19.6632 94.2606 19.2607C94.8803 18.8581 95.6457 18.6569 96.5568 18.6569C97.399 18.6569 98.1326 18.8369 98.7576 19.1971C99.3879 19.5573 99.8752 20.079 100.219 20.7623C100.569 21.4456 100.741 22.2746 100.736 23.2492V31.0195H97.8598V23.6941C97.8598 22.8784 97.6479 22.2401 97.2242 21.7793C96.8057 21.3185 96.2257 21.0881 95.4842 21.0881C94.981 21.0881 94.5334 21.1993 94.1414 21.4218C93.7548 21.6389 93.4502 21.9541 93.2278 22.3672C93.0106 22.7804 92.902 23.2809 92.902 23.8689ZM108.816 31.2579C107.593 31.2579 106.536 31.0036 105.646 30.4952C104.762 29.9814 104.081 29.2557 103.604 28.3182C103.128 27.3753 102.889 26.2657 102.889 24.9891C102.889 23.7338 103.128 22.6321 103.604 21.684C104.086 20.7305 104.759 19.989 105.622 19.4593C106.486 18.9243 107.5 18.6569 108.665 18.6569C109.418 18.6569 110.127 18.7787 110.795 19.0223C111.467 19.2607 112.061 19.6315 112.574 20.1347C113.094 20.6378 113.501 21.2788 113.798 22.0574C114.095 22.8307 114.243 23.7524 114.243 24.8223V25.7042H104.24V23.7656H111.486C111.481 23.2147 111.361 22.7248 111.128 22.2957C110.895 21.8614 110.57 21.5198 110.151 21.2708C109.738 21.0219 109.256 20.8974 108.705 20.8974C108.117 20.8974 107.601 21.0404 107.156 21.3264C106.711 21.6072 106.364 21.9779 106.115 22.4388C105.871 22.8943 105.747 23.3948 105.742 23.9404V25.6327C105.742 26.3425 105.871 26.9516 106.131 27.4601C106.39 27.9633 106.753 28.35 107.219 28.6201C107.685 28.8849 108.231 29.0173 108.856 29.0173C109.275 29.0173 109.653 28.9591 109.992 28.8426C110.331 28.7207 110.625 28.5433 110.874 28.3102C111.123 28.0772 111.311 27.7885 111.438 27.4442L114.124 27.7461C113.954 28.4559 113.631 29.0756 113.154 29.6053C112.683 30.1297 112.079 30.5375 111.343 30.8288C110.607 31.1149 109.764 31.2579 108.816 31.2579ZM121.753 31.2579C120.535 31.2579 119.489 30.9904 118.615 30.4554C117.746 29.9204 117.076 29.1815 116.605 28.2387C116.139 27.2906 115.906 26.1995 115.906 24.9653C115.906 23.7259 116.144 22.6321 116.621 21.684C117.097 20.7305 117.77 19.989 118.639 19.4593C119.513 18.9243 120.546 18.6569 121.737 18.6569C122.728 18.6569 123.604 18.8396 124.367 19.2051C125.135 19.5652 125.747 20.0764 126.203 20.7385C126.658 21.3953 126.918 22.1633 126.981 23.0426H124.232C124.121 22.4546 123.856 21.9647 123.438 21.5727C123.024 21.1755 122.471 20.9768 121.777 20.9768C121.189 20.9768 120.673 21.1357 120.228 21.4536C119.783 21.7661 119.436 22.2163 119.187 22.8042C118.943 23.3922 118.822 24.0966 118.822 24.9176C118.822 25.7492 118.943 26.4643 119.187 27.0628C119.431 27.6561 119.772 28.1142 120.212 28.4374C120.657 28.7552 121.179 28.9141 121.777 28.9141C122.201 28.9141 122.58 28.8346 122.913 28.6757C123.252 28.5115 123.536 28.2758 123.763 27.9686C123.991 27.6614 124.147 27.288 124.232 26.8483H126.981C126.912 27.7117 126.658 28.4771 126.218 29.1445C125.779 29.8066 125.18 30.3257 124.423 30.7017C123.665 31.0725 122.776 31.2579 121.753 31.2579ZM135.191 18.8158V21.0404H128.175V18.8158H135.191ZM129.907 15.8919H132.783V27.3489C132.783 27.7355 132.842 28.0321 132.958 28.2387C133.08 28.44 133.239 28.5777 133.435 28.6519C133.631 28.726 133.848 28.7631 134.086 28.7631C134.266 28.7631 134.431 28.7499 134.579 28.7234C134.733 28.6969 134.849 28.6731 134.929 28.6519L135.413 30.9004C135.26 30.9533 135.04 31.0116 134.754 31.0751C134.473 31.1387 134.129 31.1758 133.721 31.1864C133.001 31.2076 132.352 31.099 131.774 30.8606C131.197 30.617 130.739 30.2409 130.4 29.7324C130.066 29.2239 129.902 28.5883 129.907 27.8256V15.8919ZM140.862 31.2658C140.088 31.2658 139.392 31.1281 138.772 30.8527C138.158 30.572 137.67 30.1588 137.31 29.6132C136.955 29.0677 136.778 28.395 136.778 27.5952C136.778 26.9066 136.905 26.3372 137.159 25.887C137.414 25.4367 137.761 25.0765 138.2 24.8064C138.64 24.5363 139.135 24.3323 139.686 24.1946C140.242 24.0516 140.817 23.9483 141.41 23.8848C142.125 23.8106 142.705 23.7444 143.15 23.6861C143.595 23.6226 143.918 23.5272 144.119 23.4001C144.326 23.2677 144.429 23.0638 144.429 22.7883V22.7407C144.429 22.1421 144.252 21.6787 143.897 21.3503C143.542 21.0219 143.031 20.8577 142.363 20.8577C141.659 20.8577 141.1 21.0113 140.687 21.3185C140.279 21.6257 140.004 21.9885 139.861 22.407L137.175 22.0256C137.387 21.2841 137.737 20.6643 138.224 20.1664C138.711 19.6632 139.307 19.2872 140.012 19.0382C140.716 18.784 141.495 18.6569 142.348 18.6569C142.935 18.6569 143.521 18.7257 144.103 18.8634C144.686 19.0011 145.218 19.2289 145.7 19.5467C146.182 19.8592 146.569 20.2856 146.86 20.8259C147.157 21.3662 147.305 22.0415 147.305 22.8519V31.0195H144.54V29.3431H144.445C144.27 29.6821 144.024 29.9999 143.706 30.2965C143.394 30.5878 142.999 30.8236 142.522 31.0036C142.051 31.1784 141.497 31.2658 140.862 31.2658ZM141.609 29.1524C142.186 29.1524 142.687 29.0385 143.11 28.8108C143.534 28.5777 143.86 28.2705 144.088 27.8891C144.321 27.5078 144.437 27.092 144.437 26.6417V25.2037C144.347 25.2778 144.193 25.3467 143.976 25.4102C143.764 25.4738 143.526 25.5294 143.261 25.5771C142.996 25.6248 142.734 25.6671 142.475 25.7042C142.215 25.7413 141.99 25.7731 141.799 25.7996C141.37 25.8578 140.986 25.9532 140.647 26.0856C140.308 26.218 140.041 26.4034 139.845 26.6417C139.649 26.8748 139.551 27.1767 139.551 27.5475C139.551 28.0772 139.744 28.4771 140.131 28.7472C140.517 29.0173 141.01 29.1524 141.609 29.1524ZM160.336 14.7478H163.283V25.3785C163.283 26.5438 163.008 27.5687 162.457 28.4532C161.911 29.3378 161.143 30.029 160.153 30.5269C159.162 31.0195 158.005 31.2658 156.681 31.2658C155.351 31.2658 154.191 31.0195 153.201 30.5269C152.21 30.029 151.442 29.3378 150.897 28.4532C150.351 27.5687 150.078 26.5438 150.078 25.3785V14.7478H153.026V25.1322C153.026 25.8102 153.174 26.414 153.471 26.9437C153.773 27.4733 154.197 27.8891 154.742 28.1911C155.288 28.4877 155.934 28.636 156.681 28.636C157.428 28.636 158.074 28.4877 158.619 28.1911C159.17 27.8891 159.594 27.4733 159.891 26.9437C160.187 26.414 160.336 25.8102 160.336 25.1322V14.7478ZM166.241 31.0195V14.7478H176.665V17.2188H169.189V21.6363H175.95V24.1072H169.189V31.0195H166.241ZM193.032 20.2379H190.061C189.976 19.7506 189.82 19.3189 189.592 18.9429C189.364 18.5615 189.081 18.2384 188.742 17.9736C188.403 17.7087 188.016 17.5101 187.582 17.3777C187.153 17.24 186.689 17.1711 186.192 17.1711C185.307 17.1711 184.523 17.3936 183.84 17.8385C183.156 18.2781 182.621 18.9243 182.235 19.7771C181.848 20.6246 181.655 21.6601 181.655 22.8837C181.655 24.1284 181.848 25.1772 182.235 26.03C182.627 26.8775 183.162 27.5184 183.84 27.9527C184.523 28.3817 185.304 28.5963 186.184 28.5963C186.671 28.5963 187.126 28.5327 187.55 28.4056C187.979 28.2732 188.363 28.0798 188.702 27.8256C189.046 27.5713 189.335 27.2588 189.568 26.888C189.807 26.5173 189.971 26.0935 190.061 25.6168L193.032 25.6327C192.921 26.406 192.68 27.1317 192.309 27.8097C191.944 28.4877 191.464 29.0862 190.871 29.6053C190.278 30.1191 189.584 30.5216 188.79 30.813C187.995 31.099 187.113 31.242 186.144 31.242C184.714 31.242 183.437 30.9109 182.314 30.2489C181.191 29.5868 180.307 28.6307 179.661 27.3806C179.014 26.1306 178.691 24.6316 178.691 22.8837C178.691 21.1304 179.017 19.6315 179.669 18.3867C180.32 17.1367 181.207 16.1806 182.33 15.5185C183.453 14.8564 184.724 14.5254 186.144 14.5254C187.05 14.5254 187.892 14.6525 188.67 14.9067C189.449 15.161 190.143 15.5344 190.752 16.027C191.361 16.5143 191.862 17.1128 192.254 17.8226C192.651 18.5271 192.91 19.3322 193.032 20.2379Z" fill="#F5F3FF"/>
<defs>
<linearGradient id="paint0_linear_41_1127" x1="41.5895" y1="8.39946" x2="7.94255" y2="40.1943" gradientUnits="userSpaceOnUse">
<stop stop-color="#F38856"/>
<stop offset="0.23" stop-color="#F0625C"/>
<stop offset="1" stop-color="#5C3DAB"/>
</linearGradient>
<linearGradient id="paint1_linear_41_1127" x1="22.9494" y1="4.20146" x2="3.81093" y2="23.237" gradientUnits="userSpaceOnUse">
<stop stop-color="#F67986"/>
<stop offset="1" stop-color="#8951BA"/>
</linearGradient>
<linearGradient id="paint2_linear_41_1127" x1="44.8383" y1="26.2077" x2="25.6998" y2="45.2442" gradientUnits="userSpaceOnUse">
<stop stop-color="#F67986"/>
<stop offset="1" stop-color="#8951BA"/>
</linearGradient>
<linearGradient id="paint3_linear_41_1127" x1="16.1247" y1="33.1644" x2="8.63676" y2="40.1704" gradientUnits="userSpaceOnUse">
<stop stop-color="#A267B9"/>
<stop offset="1" stop-color="#704BB4"/>
</linearGradient>
<linearGradient id="paint4_linear_41_1127" x1="39.7811" y1="9.46705" x2="34.6692" y2="14.251" gradientUnits="userSpaceOnUse">
<stop stop-color="#F7A8A5"/>
<stop offset="0.97" stop-color="#D074C4"/>
<stop offset="1" stop-color="#CF76A9"/>
</linearGradient>
</defs>
</svg>
