<svg width="400" height="400" viewBox="0 0 400 400" fill="none" xmlns="http://www.w3.org/2000/svg">
<g clip-path="url(#clip0_458_3769)">
<path d="M0 200C0 310.457 89.5431 400 200 400C310.457 400 400 310.457 400 200C400 89.5431 310.457 0 200 0C89.5431 0 0 89.5431 0 200Z" fill="#09090B"/>
<path d="M199.895 95C191.715 95 183.754 95.9361 176.117 97.7109C137.279 106.71 106.71 137.279 97.7109 176.113C95.9361 183.754 95 191.715 95 199.895C95 257.827 141.963 304.79 199.895 304.79C208.075 304.79 216.036 303.854 223.677 302.079C262.511 293.08 293.08 262.515 302.083 223.685C303.858 216.043 304.794 208.078 304.794 199.895C304.794 141.963 257.827 95 199.895 95ZM199.895 265.585C192.152 265.585 184.726 264.247 177.829 261.786C159.301 255.178 144.616 240.492 138.008 221.965C135.547 215.068 134.209 207.638 134.209 199.895C134.209 163.615 163.615 134.205 199.895 134.205C207.638 134.205 215.064 135.543 221.961 138.004C240.489 144.612 255.178 159.298 261.786 177.825C264.247 184.722 265.585 192.152 265.585 199.895C265.585 236.174 236.174 265.585 199.895 265.585Z" fill="url(#paint0_linear_458_3769)"/>
<path d="M199.895 157.558C176.515 157.558 157.558 176.515 157.558 199.895C157.558 223.275 176.515 242.232 199.895 242.232C223.275 242.232 242.232 223.275 242.232 199.895C242.232 176.515 223.279 157.558 199.895 157.558ZM199.895 225.495C185.759 225.495 174.295 214.035 174.295 199.895C174.295 185.756 185.759 174.296 199.895 174.296C214.031 174.296 225.495 185.756 225.495 199.895C225.495 214.035 214.035 225.495 199.895 225.495Z" fill="#FEFCFE"/>
<path d="M221.961 138.004C215.065 135.543 207.638 134.205 199.895 134.205C163.616 134.205 134.209 163.616 134.209 199.895C134.209 207.638 135.547 215.068 138.008 221.965C129.626 218.797 121.766 213.84 115.018 207.092C106.164 198.237 100.395 187.468 97.7111 176.113C106.71 137.279 137.279 106.71 176.117 97.7109C187.468 100.395 198.237 106.164 207.092 115.018C213.836 121.762 218.794 129.622 221.961 138.004Z" fill="url(#paint1_linear_458_3769)"/>
<path d="M302.083 223.685C293.081 262.515 262.512 293.08 223.677 302.079C212.327 299.395 201.557 293.626 192.703 284.772C185.955 278.024 180.997 270.164 177.83 261.786C184.726 264.247 192.153 265.585 199.895 265.585C236.175 265.585 265.585 236.174 265.585 199.895C265.585 192.152 264.247 184.721 261.786 177.825C270.165 180.992 278.024 185.95 284.772 192.698C293.627 201.553 299.4 212.33 302.083 223.685Z" fill="url(#paint2_linear_458_3769)"/>
<path d="M148.009 273.738C160.133 273.738 169.962 263.909 169.962 251.785C169.962 239.661 160.133 229.833 148.009 229.833C135.885 229.833 126.057 239.661 126.057 251.785C126.057 263.909 135.885 273.738 148.009 273.738Z" fill="url(#paint3_linear_458_3769)"/>
<path d="M251.976 169.77C264.1 169.77 273.929 159.942 273.929 147.818C273.929 135.694 264.1 125.865 251.976 125.865C239.852 125.865 230.023 135.694 230.023 147.818C230.023 159.942 239.852 169.77 251.976 169.77Z" fill="url(#paint4_linear_458_3769)"/>
</g>
<defs>
<linearGradient id="paint0_linear_458_3769" x1="273.062" y1="130.757" x2="129.005" y2="266.884" gradientUnits="userSpaceOnUse">
<stop stop-color="#F38856"/>
<stop offset="0.23" stop-color="#F0625C"/>
<stop offset="1" stop-color="#5C3DAB"/>
</linearGradient>
<linearGradient id="paint1_linear_458_3769" x1="193.256" y1="112.783" x2="111.316" y2="194.282" gradientUnits="userSpaceOnUse">
<stop stop-color="#F67986"/>
<stop offset="1" stop-color="#8951BA"/>
</linearGradient>
<linearGradient id="paint2_linear_458_3769" x1="286.972" y1="207.002" x2="205.032" y2="288.505" gradientUnits="userSpaceOnUse">
<stop stop-color="#F67986"/>
<stop offset="1" stop-color="#8951BA"/>
</linearGradient>
<linearGradient id="paint3_linear_458_3769" x1="164.037" y1="236.787" x2="131.978" y2="266.783" gradientUnits="userSpaceOnUse">
<stop stop-color="#A267B9"/>
<stop offset="1" stop-color="#704BB4"/>
</linearGradient>
<linearGradient id="paint4_linear_458_3769" x1="265.32" y1="135.328" x2="243.434" y2="155.81" gradientUnits="userSpaceOnUse">
<stop stop-color="#F7A8A5"/>
<stop offset="0.97" stop-color="#D074C4"/>
<stop offset="1" stop-color="#CF76A9"/>
</linearGradient>
<clipPath id="clip0_458_3769">
<rect width="400" height="400" rx="89.1288" fill="white"/>
</clipPath>
</defs>
</svg>
